HIERARCHY
ROOT SpineBase
{
  OFFSET 0.000000 0.000000 0.000000
  CHANNELS 6 Xposition Yposition Zposition Zrotation Xrotation Yrotation
  JOINT SpineMid
  {
    OFFSET 0.000000 27.250178 0.000000
    CHANNELS 3 Zrotation Xrotation Yrotation
    JOINT SpineShoulder
    {
      OFFSET -0.110781 20.215844 -0.559352
      CHANNELS 3 Zrotation Xrotation Yrotation
      JOINT Neck
      {
        OFFSET -0.073865 6.683236 -0.450265
        CHANNELS 3 Zrotation Xrotation Yrotation
        JOINT Head
        {
          OFFSET -3.113650 12.818562 0.267337
          CHANNELS 3 Zrotation Xrotation Yrotation
          End Site
          {
            OFFSET 0 0 0
          }
        }
      }
      JOINT ShoulderLeft
      {
        OFFSET -11.366052 -2.046344 10.597668
        CHANNELS 3 Zrotation Xrotation Yrotation
        JOINT ElbowLeft
        {
          OFFSET -0.679884 -21.816166 6.432091
          CHANNELS 3 Zrotation Xrotation Yrotation
          JOINT WristLeft
          {
            OFFSET -0.467058 -23.187772 -1.471886
            CHANNELS 3 Zrotation Xrotation Yrotation
            JOINT HandLeft
            {
              OFFSET -0.056047 -8.546005 -0.403967
              CHANNELS 3 Zrotation Xrotation Yrotation
              JOINT HandTipLeft
              {
                OFFSET -0.377624 -1.962805 -1.358543
                CHANNELS 3 Zrotation Xrotation Yrotation
                End Site
                {
                  OFFSET 0 0 0
                }
              }
              JOINT ThumbLeft
              {
                OFFSET -0.609657 0.886613 -0.668203
                CHANNELS 3 Zrotation Xrotation Yrotation
                End Site
                {
                  OFFSET 0 0 0
                }
              }
            }
          }
        }
      }
      JOINT ShoulderRight
      {
        OFFSET 8.454092 -2.905184 -12.593966
        CHANNELS 3 Zrotation Xrotation Yrotation
        JOINT ElbowRight
        {
          OFFSET -0.889491 -17.449315 -10.539131
          CHANNELS 3 Zrotation Xrotation Yrotation
          JOINT WristRight
          {
            OFFSET -17.940699 8.257262 -8.455845
            CHANNELS 3 Zrotation Xrotation Yrotation
            JOINT HandRight
            {
              OFFSET -4.797271 2.346594 -0.831991
              CHANNELS 3 Zrotation Xrotation Yrotation
              JOINT HandTipRight
              {
                OFFSET -5.779620 4.175339 -1.684721
                CHANNELS 3 Zrotation Xrotation Yrotation
                End Site
                {
                  OFFSET 0 0 0
                }
              }
              JOINT ThumbRight
              {
                OFFSET -2.930154 -2.701730 -0.306058
                CHANNELS 3 Zrotation Xrotation Yrotation
                End Site
                {
                  OFFSET 0 0 0
                }
              }
            }
          }
        }
      }
    }
  }
  JOINT HipLeft
  {
    OFFSET -4.410849 -0.097400 1.831803
    CHANNELS 3 Zrotation Xrotation Yrotation
    JOINT KneeLeft
    {
      OFFSET 4.231818 -27.080866 3.432661
      CHANNELS 3 Zrotation Xrotation Yrotation
      JOINT AnkleLeft
      {
        OFFSET 11.155175 -37.138784 8.048000
        CHANNELS 3 Zrotation Xrotation Yrotation
        JOINT FootLeft
        {
          OFFSET -1.344832 -7.103111 -3.344755
          CHANNELS 3 Zrotation Xrotation Yrotation
          End Site
          {
            OFFSET 0 0 0
          }
        }
      }
    }
  }
  JOINT HipRight
  {
    OFFSET 4.076833 1.577323 -8.166637
    CHANNELS 3 Zrotation Xrotation Yrotation
    JOINT KneeRight
    {
      OFFSET 8.786975 -31.066802 5.186133
      CHANNELS 3 Zrotation Xrotation Yrotation
      JOINT AnkleRight
      {
        OFFSET 4.482185 -33.936109 6.485018
        CHANNELS 3 Zrotation Xrotation Yrotation
        JOINT FootRight
        {
          OFFSET -4.432157 -5.916804 -3.376987
          CHANNELS 3 Zrotation Xrotation Yrotation
          End Site
          {
            OFFSET 0 0 0
          }
        }
      }
    }
  }
}
MOTION
Frames: 13
Frame Time: 0.033333
19.393872 72.964087 347.050569 -0.000000 0.000000 49.672055 -0.000000 0.000000 -49.672055 -0.000000 0.000000 0.000000 -0.000000 0.000000 0.000000 0.000000 0.000000 0.000000 -0.000000 0.000000 0.000000 -0.000000 0.000000 0.000000 -0.000000 0.000000 0.000000 -0.000000 0.000000 0.000000 0.000000 0.000000 0.000000 0.000000 0.000000 0.000000 -0.000000 0.000000 0.000000 -0.000000 0.000000 0.000000 -0.000000 0.000000 0.000000 -0.000000 0.000000 0.000000 0.000000 0.000000 0.000000 0.000000 0.000000 0.000000 -0.000000 0.000000 -49.672055 -0.000000 0.000000 0.000000 -0.000000 0.000000 0.000000 0.000000 0.000000 0.000000 -0.000000 0.000000 -49.672055 -0.000000 0.000000 0.000000 -0.000000 0.000000 0.000000 0.000000 0.000000 0.000000
19.480881 73.005196 347.020698 0.124018 0.117796 49.707296 -0.170050 0.018418 -49.707396 -0.000000 0.000000 0.000000 -0.000000 0.000000 0.000000 0.000000 0.000000 0.000000 -0.000000 0.000000 0.000000 -0.000000 0.000000 0.000000 -0.000000 0.000000 0.000000 -1.442642 10.347247 -0.813943 0.000000 0.000000 0.000000 0.000000 0.000000 0.000000 0.626812 -0.394348 -0.357171 -0.629273 0.390409 0.361472 -0.259763 -0.726151 -1.581952 0.607388 -0.641904 -0.189290 0.000000 0.000000 0.000000 0.000000 0.000000 0.000000 -0.170050 0.018418 -49.707396 -0.000000 0.000000 0.000000 0.708046 2.239009 -0.765059 0.000000 0.000000 0.000000 -0.170050 0.018418 -49.707396 0.690006 1.797950 0.359309 4.259962 -9.921885 3.636586 0.000000 0.000000 0.000000
19.547536 73.039816 346.997935 0.216785 0.206499 49.717003 -0.297695 0.031863 -49.717311 -0.000000 0.000000 0.000000 -0.000000 0.000000 0.000000 0.000000 0.000000 0.000000 -0.000000 0.000000 0.000000 -0.000000 0.000000 0.000000 -0.000000 0.000000 0.000000 -2.953583 21.735003 -1.424169 0.000000 0.000000 0.000000 0.000000 0.000000 0.000000 1.203050 -0.667387 -0.688405 -0.450456 0.611104 1.351834 -1.396180 -1.345459 -3.792329 1.284576 -0.955748 0.040466 0.000000 0.000000 0.000000 0.000000 0.000000 0.000000 -0.297695 0.031863 -49.717311 -0.000000 0.000000 0.000000 1.444273 4.308108 -1.526996 0.000000 0.000000 0.000000 -0.297695 0.031863 -49.717311 1.252102 3.254582 0.636208 8.152446 -17.573910 7.327858 0.000000 0.000000 0.000000
19.593837 73.067948 346.982279 0.278298 0.266106 49.701595 -0.382949 0.040147 -49.702107 -0.000000 0.000000 0.000000 -0.000000 0.000000 0.000000 0.000000 0.000000 0.000000 -0.000000 0.000000 0.000000 -0.000000 0.000000 0.000000 -0.000000 0.000000 0.000000 -4.159696 30.494993 -1.668196 0.000000 0.000000 0.000000 0.000000 0.000000 0.000000 1.729870 -0.818753 -0.995837 -0.714164 0.739300 1.896267 -2.125595 -1.899856 -5.429375 2.019045 -1.007136 0.554202 0.000000 0.000000 0.000000 0.000000 0.000000 0.000000 -0.382949 0.040147 -49.702107 -0.000000 0.000000 0.000000 2.201201 6.196885 -2.280079 0.000000 0.000000 0.000000 -0.382949 0.040147 -49.702107 1.661317 4.284448 0.825792 11.142112 -22.600644 10.298045 0.000000 0.000000 0.000000
19.619783 73.089592 346.973731 0.308552 0.296615 49.661297 -0.425815 0.043190 -49.661935 -0.000000 0.000000 0.000000 0.926330 0.401096 0.074713 0.000000 0.000000 0.000000 -0.000000 0.000000 0.000000 -0.000000 0.000000 0.000000 0.135448 0.906952 -0.013418 -4.491850 30.580593 -1.676900 0.000000 0.000000 0.000000 0.000000 0.000000 0.000000 2.208373 -0.848322 -1.281330 -0.991314 0.747222 2.362960 -2.844186 -2.304158 -6.743320 2.781855 -0.862370 1.224738 0.000000 0.000000 0.000000 0.000000 0.000000 0.000000 -0.425815 0.043190 -49.661935 -0.000000 0.000000 0.000000 2.971353 7.898883 -3.018513 0.000000 0.000000 0.000000 -0.425815 0.043190 -49.661935 1.898354 4.822944 0.925627 12.795502 -25.069762 11.938349 0.000000 0.000000 0.000000
19.625375 73.104748 346.972291 0.307541 0.298020 49.596145 -0.426279 0.041025 -49.596792 -0.000000 0.000000 0.000000 1.110419 0.473165 0.086977 0.000000 0.000000 0.000000 -0.000000 0.000000 0.000000 -0.000000 0.000000 0.000000 -0.043499 1.877237 -0.009536 -2.905763 18.173668 -1.251142 0.000000 0.000000 0.000000 0.000000 0.000000 0.000000 2.639584 -0.756151 -1.546472 -1.276106 0.634296 2.756014 -3.511479 -2.527010 -7.645109 3.535529 -0.572271 1.963015 0.000000 0.000000 0.000000 0.000000 0.000000 0.000000 -0.426279 0.041025 -49.596792 -0.000000 0.000000 0.000000 3.747466 9.411121 -3.736603 0.000000 0.000000 0.000000 -0.426279 0.041025 -49.596792 1.951504 4.833507 0.934777 12.886094 -25.119503 11.927778 0.000000 0.000000 0.000000
19.616273 73.118014 346.975303 0.286291 0.256897 49.561113 -0.381222 0.051264 -49.561585 -0.000000 0.000000 0.000000 1.281949 0.653177 0.124263 0.000000 0.000000 0.000000 -0.000000 0.000000 0.000000 -0.000000 0.000000 0.000000 -0.409193 2.854138 0.010801 1.084433 -7.704551 0.556921 0.000000 0.000000 0.000000 0.000000 0.000000 0.000000 3.287401 -0.628494 -1.945116 -1.764837 0.418837 3.178014 -4.572327 -2.434460 -8.109803 5.476520 -0.416170 2.672143 0.000000 0.000000 0.000000 0.000000 0.000000 0.000000 -0.381222 0.051264 -49.561585 -0.000000 0.000000 0.000000 5.670807 12.190373 -5.371459 0.000000 0.000000 0.000000 -0.381222 0.051264 -49.561585 0.991215 2.751329 0.530900 3.361832 -9.387931 2.495870 0.000000 0.000000 0.000000
19.579732 73.115879 346.997645 0.216896 0.179274 49.411718 -0.277258 0.048073 -49.411941 -0.000000 0.000000 0.000000 1.418192 0.704984 0.132524 0.000000 0.000000 0.000000 -0.000000 0.000000 0.000000 -0.000000 0.000000 0.000000 -1.008382 2.796255 0.053872 4.173221 -21.529041 2.424876 0.000000 0.000000 0.000000 0.000000 0.000000 0.000000 3.710949 -0.319655 -2.222630 -2.132088 0.085050 3.487802 -5.228094 -2.086428 -7.759363 6.266466 -0.183720 3.024978 0.000000 0.000000 0.000000 0.000000 0.000000 0.000000 -0.277258 0.048073 -49.411941 -0.000000 0.000000 0.000000 6.523164 13.385333 -6.109389 0.000000 0.000000 0.000000 -0.277258 0.048073 -49.411941 0.729196 1.641759 0.346409 1.696663 -4.872262 0.820557 0.000000 0.000000 0.000000
19.512959 73.148332 347.032931 0.095859 0.082989 49.212707 -0.125455 0.018366 -49.212756 -0.000000 0.000000 0.000000 1.557066 0.678617 0.122722 0.000000 0.000000 0.000000 -0.000000 0.000000 0.000000 -0.000000 0.000000 0.000000 -1.134723 6.998673 0.076848 6.399361 -35.922847 5.217926 0.000000 0.000000 0.000000 0.000000 0.000000 0.000000 4.270062 -0.210030 -2.569010 -2.764373 -0.062193 3.762883 -5.422626 -2.206721 -8.083595 5.923800 0.880929 4.423155 0.000000 0.000000 0.000000 0.000000 0.000000 0.000000 -0.125455 0.018366 -49.212756 -0.000000 0.000000 0.000000 9.972362 10.768260 -7.475569 0.000000 0.000000 0.000000 -0.125455 0.018366 -49.212756 0.964225 1.674781 0.392043 6.800458 -12.976398 5.149808 0.000000 0.000000 0.000000
19.441525 73.129187 347.057620 -0.018508 -0.005873 48.967322 0.016580 -0.010105 -48.967321 -0.000000 0.000000 0.000000 1.690669 0.592669 0.099587 0.000000 0.000000 0.000000 -0.000000 0.000000 0.000000 -0.000000 0.000000 0.000000 -1.645321 9.064224 0.148067 9.451536 -43.607850 7.170129 0.000000 0.000000 0.000000 0.000000 0.000000 0.000000 4.179016 0.388113 -2.558228 -2.776721 -0.621009 3.680774 -5.315074 -1.951451 -7.402489 5.782957 2.906764 7.007173 0.000000 0.000000 0.000000 0.000000 0.000000 0.000000 0.016580 -0.010105 -48.967321 -0.000000 0.000000 0.000000 5.276225 13.588109 -5.438142 0.000000 0.000000 0.000000 0.016580 -0.010105 -48.967321 0.542354 0.708393 0.193961 7.214060 -11.461139 4.749660 0.000000 0.000000 0.000000
19.401406 73.063265 347.027448 -0.091375 -0.025867 48.726446 0.079717 -0.051612 -48.726431 -0.000000 0.000000 0.000000 1.856229 0.561951 0.088324 0.000000 0.000000 0.000000 -0.000000 0.000000 0.000000 -0.000000 0.000000 0.000000 -2.422631 10.530979 0.267374 10.796608 -45.851248 7.848762 0.000000 0.000000 0.000000 0.000000 0.000000 0.000000 3.666644 1.318085 -2.312134 -2.347368 -1.454533 3.430336 -4.788954 -1.695132 -6.510940 3.347236 3.982413 7.840240 0.000000 0.000000 0.000000 0.000000 0.000000 0.000000 -0.038164 -1.037871 -48.758905 -0.663932 0.738797 0.035634 1.783953 15.644120 -3.827797 0.000000 0.000000 0.000000 0.079717 -0.051612 -48.726431 0.805626 0.774998 0.250957 4.923804 -8.962850 3.342016 0.000000 0.000000 0.000000
19.353354 72.927517 346.984280 -0.141351 -0.022368 48.683657 0.110122 -0.091398 -48.683596 -0.000000 0.000000 0.000000 1.898046 0.539692 0.082226 0.000000 0.000000 0.000000 -0.000000 0.000000 0.000000 -0.000000 0.000000 0.000000 -3.181180 10.749959 0.377340 12.211121 -47.411608 8.499233 0.000000 0.000000 0.000000 0.000000 0.000000 0.000000 2.756832 2.325979 -1.819734 -1.624086 -2.316116 2.948209 -4.329905 -1.387110 -5.509619 1.528664 4.804414 8.397274 0.000000 0.000000 0.000000 0.000000 0.000000 0.000000 0.300536 -1.468959 -48.653768 -1.160045 0.767008 -0.019471 -0.582312 17.335255 -2.744188 0.000000 0.000000 0.000000 0.110122 -0.091398 -48.683596 0.621735 0.748623 0.213740 6.179673 -10.071837 3.870884 0.000000 0.000000 0.000000
19.305403 72.757338 346.942557 -0.170687 -0.015730 48.736789 0.124395 -0.117929 -48.736685 -0.000000 0.000000 0.000000 1.902766 0.565636 0.087951 0.000000 0.000000 0.000000 -0.000000 0.000000 0.000000 -0.000000 0.000000 0.000000 -3.965610 10.636993 0.484638 14.645774 -45.397777 7.323308 0.000000 0.000000 0.000000 0.000000 0.000000 0.000000 1.962300 3.030103 -1.370949 -1.004005 -2.911507 2.518013 -4.149655 -0.884767 -4.243836 0.311455 4.859973 7.821262 0.000000 0.000000 0.000000 0.000000 0.000000 0.000000 0.669434 -1.725028 -48.631141 -1.566372 0.652933 -0.087852 -2.212613 18.237193 -1.931828 0.000000 0.000000 0.000000 0.124395 -0.117929 -48.736685 -0.000000 0.000000 0.000000 2.549570 -3.656851 1.415528 0.000000 0.000000 0.000000
